<svg width="1024" height="1026" viewBox="0 0 1024 1026" fill="none" xmlns="http://www.w3.org/2000/svg">
<path d="M363.375 646.833L422.625 588.5L363.375 530.167" stroke="#CBA6F7" style="stroke:#CBA6F7;stroke:color(display-p3 0.7961 0.6510 0.9686);stroke-opacity:1;" stroke-width="28" stroke-linecap="round" stroke-linejoin="round"/>
<path d="M481.875 705.167H600.375" stroke="#CBA6F7" style="stroke:#CBA6F7;stroke:color(display-p3 0.7961 0.6510 0.9686);stroke-opacity:1;" stroke-width="28" stroke-linecap="round" stroke-linejoin="round"/>
<path d="M718.875 413.5H304.125C271.402 413.5 244.875 439.617 244.875 471.833V880.167C244.875 912.383 271.402 938.5 304.125 938.5H718.875C751.598 938.5 778.125 912.383 778.125 880.167V471.833C778.125 439.617 751.598 413.5 718.875 413.5Z" stroke="#CBA6F7" style="stroke:#CBA6F7;stroke:color(display-p3 0.7961 0.6510 0.9686);stroke-opacity:1;" stroke-width="28" stroke-linecap="round" stroke-linejoin="round"/>
<path d="M612.625 410.831C617.941 410.831 623.038 408.72 626.797 404.961C630.556 401.203 632.667 396.105 632.667 390.79V283.567C632.667 274.408 639 266.652 647.237 262.703C664.292 254.567 677.925 240.669 685.73 223.46C693.535 206.25 695.01 186.838 689.894 168.647C684.779 150.456 673.403 134.657 657.773 124.038C642.143 113.419 623.264 108.662 604.468 110.607C596.728 92.6139 583.883 77.2838 567.523 66.5122C551.163 55.7407 532.005 50 512.417 50C492.829 50 473.671 55.7407 457.311 66.5122C440.951 77.2838 428.106 92.6139 420.366 110.607C401.578 108.676 382.712 113.439 367.094 124.058C351.475 134.677 340.107 150.469 334.994 168.65C329.881 186.831 331.351 206.234 339.145 223.437C346.939 240.64 360.557 254.539 377.597 262.683C385.834 266.652 392.167 274.408 392.167 283.547V390.79C392.167 396.105 394.279 401.203 398.037 404.961C401.796 408.72 406.893 410.831 412.209 410.831H612.625Z" stroke="#CBA6F7" style="stroke:#CBA6F7;stroke:color(display-p3 0.7961 0.6510 0.9686);stroke-opacity:1;" stroke-width="28" stroke-linecap="round" stroke-linejoin="round"/>
<path d="M391.25 340.708H631.75" stroke="#CBA6F7" style="stroke:#CBA6F7;stroke:color(display-p3 0.7961 0.6510 0.9686);stroke-opacity:1;" stroke-width="28" stroke-linecap="round" stroke-linejoin="round"/>
</svg>
