<?xml version="1.0" encoding="UTF-8"?>
<svg width="1024px" height="1024px" viewBox="0 0 1024 1024" version="1.1" xmlns="http://www.w3.org/2000/svg" xmlns:xlink="http://www.w3.org/1999/xlink">
    <title>4 - Layer</title>
    <g id="Template---App-Icons" stroke="none" stroke-width="1" fill="none" fill-rule="evenodd" stroke-linecap="round" stroke-linejoin="round">
        <g id="4---Layer" stroke="color(display-p3 0.796 0.651 0.969)">
            <g id="Group" transform="translate(-0, 37)">
                <path d="M612.625,410.831 C617.941,410.831 623.038,408.72 626.797,404.961 C630.556,401.203 632.667,396.105 632.667,390.79 L632.667,283.567 C632.667,274.408 639,266.652 647.237,262.703 C664.292,254.567 677.925,240.669 685.73,223.46 C693.535,206.25 695.01,186.838 689.894,168.647 C684.779,150.456 673.403,134.657 657.773,124.038 C642.143,113.419 623.264,108.662 604.468,110.607 C596.728,92.6139 583.883,77.2838 567.523,66.5122 C551.163,55.7407 532.005,50 512.417,50 C492.829,50 473.671,55.7407 457.311,66.5122 C440.951,77.2838 428.106,92.6139 420.366,110.607 C401.578,108.676 382.712,113.439 367.094,124.058 C351.475,134.677 340.107,150.469 334.994,168.65 C329.881,186.831 331.351,206.234 339.145,223.437 C346.939,240.64 360.557,254.539 377.597,262.683 C385.834,266.652 392.167,274.408 392.167,283.547 L392.167,390.79 C392.167,396.105 394.279,401.203 398.037,404.961 C401.796,408.72 406.893,410.831 412.209,410.831 L612.625,410.831 Z" id="Path" stroke-width="28"></path>
                <line x1="391.25" y1="340.708" x2="631.75" y2="340.708" id="Path" stroke-width="20"></line>
            </g>
            <g id="terminal(1)" transform="translate(173, 426)">
                <g id="Group" transform="translate(101, 124)">
                    <line x1="199.5" y1="349.517241" x2="399" y2="349.517241" id="Path" stroke-width="28"></line>
                    <polyline id="Path" stroke-width="28" points="0 299.586207 149.625 149.793103 0 0"></polyline>
                </g>
            </g>
        </g>
    </g>
</svg>